# xmcd CD database file
#
# Track frame offsets:
#	150
#	20420
#	41615
#	60229
#	83633
#	105914
#	124917
#	145115
#	163566
#	183042
#	202260
#	226078
#	249442
#	266090
#	279673
#	302038
#	319320
#
# Disc length: 4508 seconds
#
# Revision: 0
# Processed by: cddbd v1.5.2PL0 Copyright (c) Steve Scherf et al.
# Submitted via: CDex 1.70beta2
#
DISCID=e0119a11
DTITLE=テレサ・テン - シングルコレクションdisk3
DYEAR=2007
DGENRE=Blues
TTITLE0=別れの予感
TTITLE1=恋人たちの神話
TTITLE2=硝子の摩天楼
TTITLE3=香港 Hong Kong
TTITLE4=星のしずくに濡れて
TTITLE5=悲しい自由
TTITLE6=涙の条件
TTITLE7=ＹＥＳ，愛につつまれ
TTITLE8=悲しみと踊らせて
TTITLE9=寝物語を聴かせて
TTITLE10=愛の日差し_アモーレ・ミオ
TTITLE11=夢立ちぬ
TTITLE12=夕凪
TTITLE13=晩秋
TTITLE14=あなたと共に生きてゆく
TTITLE15=愛し愛されて
TTITLE16=冬のひまわり
EXTD=YEAR: 2007
EXTT0=
EXTT1=
EXTT2=
EXTT3=
EXTT4=
EXTT5=
EXTT6=
EXTT7=
EXTT8=
EXTT9=
EXTT10=
EXTT11=
EXTT12=
EXTT13=
EXTT14=
EXTT15=
EXTT16=
PLAYORDER=
